<?xml version="1.0" encoding="UTF-8" standalone="no"?>
		<!-- Created with Inkscape (http://www.inkscape.org/) -->
		
		<svg
		xmlns:dc="http://purl.org/dc/elements/1.1/"
		xmlns:cc="http://creativecommons.org/ns#"
		xmlns:rdf="http://www.w3.org/1999/02/22-rdf-syntax-ns#"
		xmlns:svg="http://www.w3.org/2000/svg"
		xmlns="http://www.w3.org/2000/svg"
		xmlns:sodipodi="http://sodipodi.sourceforge.net/DTD/sodipodi-0.dtd"
		xmlns:inkscape="http://www.inkscape.org/namespaces/inkscape"
		width="744.09448819"
		height="1052.3622047"
		id="svg2"
		version="1.1"
		inkscape:version="0.48.4 r9939"
		sodipodi:docname="Base to R.svg">
		<defs
		id="defs4" />
		<sodipodi:namedview
		id="base"
		pagecolor="#ffffff"
		bordercolor="#666666"
		borderopacity="1.0"
		inkscape:pageopacity="0.0"
		inkscape:pageshadow="2"
		inkscape:zoom="1"
		inkscape:cx="293.26053"
		inkscape:cy="750.8174"
		inkscape:document-units="px"
		inkscape:current-layer="layer1"
		showgrid="false"
		inkscape:window-width="1538"
		inkscape:window-height="877"
		inkscape:window-x="54"
		inkscape:window-y="-8"
		inkscape:window-maximized="1" />
		<metadata
		id="metadata7">
		<rdf:RDF>
		<cc:Work
		rdf:about="">
		<dc:format>image/svg+xml</dc:format>
		<dc:type
		rdf:resource="http://purl.org/dc/dcmitype/StillImage" />
		<dc:title></dc:title>
		</cc:Work>
		</rdf:RDF>
		</metadata>
		<g
		inkscape:label="Layer 1"
		inkscape:groupmode="layer"
		id="layer1">
		<g
		id="g3764"
		transform="translate(358,-4)" />
		<g
		id="g3807"
		transform="matrix(0.90083118,0,0,0.90083118,39.595228,62.593598)">
		<path
		inkscape:label="opacity_A"
		sodipodi:nodetypes="cssssccsscsssscscc"
		inkscape:connector-curvature="0"
		id="opacity_A"
		d="m 323.1595,626.90442 c -42.0524,-6.5475 -86.4399,-27.96663 -125.88883,-54.25593 -25.69859,-17.1258 -39.94414,-28.7628 -61.01034,-49.8385 -44.91879,-44.939 -73.84309,-92.72265 -87.11474,-143.91573 -18.73837,-72.28002 4.28765,-132.4589 60.58544,-158.34103 5.59577,-2.57258 13.65105,-7.35201 21.67839,-8.67653 -4.51845,14.60184 -2.74344,10.62586 -4.5357,20.13755 -2.77561,15.55721 -2.03442,45.0826 1.59587,63.57143 2.69614,13.73127 11.30704,40.40303 17.52598,54.28571 l 4.15966,9.28572 -3.33262,10.71428 c -8.64452,27.79185 -9.74144,34.87905 -9.72874,62.85715 0.0107,23.49322 0.38378,27.69791 3.35939,37.85715 14.72389,50.2697 50.15,80.6115 105.88044,90.6844 l 9.2857,1.6784 6.4286,10.051 c 14.7356,23.039 43.89767,49.21941 90.73833,56.67091 0.33804,0.95297 -21.24227,-0.58296 -29.62683,-2.76598 z"
		style="fill-opacity:0.365384615384615;fill:#ba1a1a;stroke-opacity:1;stroke:#000000;stroke-width:2" />
		<path
		inkscape:label="opacity_ABCD"
		sodipodi:nodetypes="cccscsc"
		inkscape:connector-curvature="0"
		id="opacity_ABCD"
		d="m 369.38068,286.59609 c -67.06508,54.17202 -113.56959,126.60598 -122.84375,191.90625 37.7053,32.39813 81.41532,56.11738 123.125,70.4375 22.81383,-7.54315 46.15052,-17.94989 69.40625,-31.375 17.26475,-9.96663 33.6055,-21.08673 48.875,-33.0625 -4.93458,-46.74344 -27.9976,-99.15551 -68.875,-148.1875 -15.24644,-18.28794 -31.98845,-34.92485 -49.6875,-49.71875 z"
		style="fill-opacity:0;fill:#ba1a1a;stroke:#000000;stroke-opacity:1;stroke-width:1.5" />
		<path
		inkscape:label="opacity_B"
		sodipodi:nodetypes="sscccs"
		inkscape:connector-curvature="0"
		id="opacity_B"
		d="m 265.3664,128.0464 c -27.33223,-0.0865 -52.76082,5.37882 -74.53125,16.96875 -27.53229,14.65738 -48.41929,36.88688 -57.78125,64.625 35.90141,-8.69109 80.09307,-4.15206 122.64645,10.59375 35.87051,-29.77716 72.79355,-52.75719 113.25979,-69.0625 -35.27578,-14.93433 -70.8056,-23.02129 -103.59374,-23.125 z"
		style="fill-opacity:0;fill:#ba1a1a;stroke:#000000;stroke-opacity:1;stroke-width:1.5" />
		<path
		inkscape:label="opacity_C"
		sodipodi:nodetypes="cccc"
		inkscape:connector-curvature="0"
		id="opacity_C"
		d="m 371.22434,151.5297 c 38.1286,16.14212 75.9662,40.30305 109.6875,71.15625 47.7982,-17.13306 92.00158,-22.45688 129.75938,-13.72629 C 581.22932,128.50865 480.94564,107.67169 371.22434,151.5297 z"
		style="fill-opacity:0;fill:#ba1a1a;stroke:#000000;stroke-opacity:1;stroke-width:1.5" />
		<path
		inkscape:label="opacity_ABC"
		sodipodi:nodetypes="ccccc"
		inkscape:connector-curvature="0"
		id="path3526-2-6"
		d="m 153.72946,359.7622 c 22.94865,47.09193 53.19052,87.5234 92.875,117.53125 9.275,-65.30644 54.2994,-137.20119 121.375,-191.375 -35.1319,-29.3655 -74.0312,-51.47125 -112.5313,-64.8125 -47.4254,40.74932 -82.9872,89.90784 -101.7187,138.65625 z"
		style="fill-opacity:0.230769230769231;fill:#ba1a1a;stroke:#000000;stroke-opacity:1;stroke-width:1.5" />
		<path
		inkscape:label="opacity_BCD"
		sodipodi:nodetypes="csccscsc"
		inkscape:connector-curvature="0"
		id="opacity_BCD"
		d="m 370.91319,286.67702 c 17.6985,14.79363 34.4414,31.43126 49.68754,49.71875 40.8861,49.04253 63.9159,101.43646 68.8437,148.1875 38.7406,-30.38258 70.5922,-66.41972 93.18762,-103.90625 -10.6415,-38.53543 -32.14282,-79.18367 -64.43762,-117.8125 -11.6395,-13.92251 -24.1177,-26.91951 -37.2187,-38.90625 -19.8259,7.10649 -40.0022,16.51257 -60.125,28.25 -17.71494,10.33293 -34.41664,21.93318 -49.93754,34.46875 z"
		style="fill-opacity:0.0288461538461538;fill:#ba1a1a;stroke:#000000;stroke-opacity:1;stroke-width:1.5" />
		<path
		inkscape:label="opacity_ABD"
		sodipodi:nodetypes="csccc"
		inkscape:connector-curvature="0"
		id="opacity_ABD"
		d="m 488.75749,486.03034 c -15.2674,11.97363 -31.5817,23.06617 -48.8437,33.03125 -23.2674,13.43181 -46.6128,23.86223 -69.4375,31.40625 37.1224,12.7478 73.8485,17.6445 106.6875,13.4062 10.8024,-22.38313 14.6299,-49.03926 11.5937,-77.8437 z"
		style="fill-opacity:0;fill:#ba1a1a;stroke:#000000;stroke-opacity:1;stroke-width:1.5" />
		<path
		inkscape:label="opacity_ACD"
		sodipodi:nodetypes="ccscc"
		inkscape:connector-curvature="0"
		id="opacity_ACD"
		d="m 368.39422,549.31083 c -41.70999,-14.32322 -84.92099,-38.06794 -122.62499,-70.46875 -3.5001,24.64425 -1.8798,48.36215 5.5312,69.8125 1.7775,5.14475 3.8642,10.02315 6.2188,14.68745 33.0685,3.7938 75.2009,0.9166 110.87499,-14.0312 z"
		style="fill-opacity:0.230769230769231;fill:#ba1a1a;stroke:#000000;stroke-opacity:1;stroke-width:1.5" />
		<path
		inkscape:label="opacity_AD"
		sodipodi:nodetypes="cssccccsccc"
		inkscape:connector-curvature="0"
		id="opacity_AD"
		d="m 346.35679,628.32473 c 3.3587,0.1771 7.9293,1.3324 11.2336,1.3431 13.2171,0.043 25.9725,-0.1932 38.0555,-2.9061 12.083,-2.7129 23.4936,-6.8417 34.0212,-12.462 m 0,0 c 21.9683,-11.728 37.9114,-28.8122 47.9063,-49.5312 -32.8309,4.2373 -73.0432,-1.16547 -110.1563,-13.90625 -25.6914,8.49458 -47.2227,13.80893 -70.7383,15.04946 -11.7577,0.62026 -27.37918,-0.7136 -38.27207,-1.86695 10.74483,25.9151 47.28527,52.60795 78.07297,61.4425 5.1071,1.3949 9.933,2.7306 10.7187,2.9687"
		style="fill-opacity:0.596153846153846;fill:#ba1a1a;stroke:#000000;stroke-opacity:1;stroke-width:1.5" />
		<path
		inkscape:label="opacity_BD"
		sodipodi:nodetypes="cccsc"
		id="opacity_BD"
		d="m 582.31676,383.67969 c -22.5949,37.48219 -54.4512,71.49567 -93.1876,101.87497 3.0415,28.8088 -0.7939,57.4561 -11.5937,79.8437 18.0405,-2.3283 34.8941,-7.3955 50,-15.4375 56.6533,-30.1605 74.5941,-94.5336 54.7813,-166.28117 z"
		style="fill-opacity:0.0288461538461538;fill:#ba1a1a;stroke:#000000;stroke-opacity:1;stroke-width:1.5"
		inkscape:connector-curvature="0" />
		<path
		inkscape:label="opacity_D"
		sodipodi:nodetypes="ccscscssc"
		inkscape:connector-curvature="0"
		id="opacity_D"
		d="m 614.98601,211.80086 c 24.68677,75.8996 -15.25658,142.91216 -32.1562,169.9375 19.8128,71.74758 0.372,139.12067 -56.2813,169.28125 -15.1059,8.04194 -31.9595,13.10911 -50,15.4375 -9.9949,20.719 -25.938,37.8032 -47.9063,49.5312 -17.3108,9.2417 -34.0067,12.4234 -55.1562,13.9376 48.5662,3.2748 103.2513,-9.1569 160.4688,-42.5313 123.1615,-71.8389 197.4067,-204.21007 165.8124,-295.65625 -13.9838,-40.47457 -42.3601,-70.12015 -84.7812,-79.9375 z"
		style="fill-opacity:0.0673076923076923;fill:#ba1a1a;stroke:#000000;stroke-opacity:1;stroke-width:1.5" />
		<path
		inkscape:label="opacity_AC"
		sodipodi:nodetypes="cccscsc"
		inkscape:connector-curvature="0"
		id="opacity_AC"
		d="m 256.1343,561.90625 c -2.3535,-4.66284 -4.4419,-9.57581 -6.2187,-14.71875 -7.4111,-21.45038 -9.0001,-45.13696 -5.5,-69.78125 -16.5835,-14.24929 -32.2971,-30.06226 -46.7188,-47.3125 -19.2241,-22.99454 -34.1159,-47.22329 -45.6875,-70.78125 -16.3324,42.47661 -20.3785,85.12887 -7.8125,121.125 16.6257,47.6256 58.2689,75.31166 111.9375,81.46875 z"
		style="fill-opacity:1;fill:#ba1a1a;stroke:#000000;stroke-opacity:1;stroke-width:1.5" />
		<path
		inkscape:label="opacity_CD"
		sodipodi:nodetypes="cscccsc"
		inkscape:connector-curvature="0"
		id="opacity_CD"
		d="m 482.48113,223.21151 c 13.0954,11.98282 25.5837,24.95796 37.2187,38.875 32.2948,38.62882 53.7961,79.30832 64.4376,117.84375 34.5372,-57.30553 47.4564,-118.01909 30.2812,-167.21875 -0.2028,-0.58097 -0.4148,-1.14371 -0.625,-1.71875 -12.9888,-3.00594 -26.9287,-4.52878 -41.5625,-4.53125 -27.9143,-0.005 -58.3834,5.51209 -89.75,16.75 z"
		style="fill-opacity:0.269230769230769;fill:#ba1a1a;stroke:#000000;stroke-opacity:1;stroke-width:1.5" />
		<path
		inkscape:label="opacity_AB"
		sodipodi:nodetypes="ccscc"
		inkscape:connector-curvature="0"
		id="opacity_AB"
		d="m 151.9468,359.9375 c 18.73404,-48.74722 54.29306,-97.90905 101.7188,-138.65625 -27.38726,-9.49104 -54.56316,-14.54422 -80.0313,-14.625 -14.10127,-0.0447 -27.67442,1.46491 -40.46875,4.5625 -14.08214,41.74795 -7.69454,94.82494 18.78125,148.71875 z"
		style="fill-opacity:0.230769230769231;fill:#ba1a1a;stroke:#000000;stroke-opacity:1;stroke-width:1.5" />
		<path
		inkscape:label="opacity_BC"
		sodipodi:nodetypes="ccccc"
		inkscape:connector-curvature="0"
		id="opacity_BC"
		d="m 369.61496,152.48896 c -41.72527,17.02528 -81.00578,40.40402 -112.93741,67.64829 38.5019,13.34105 77.3976,36.85978 112.5312,66.22671 34.6364,-27.5823 72.4763,-48.99514 112.21513,-63.39461 -34.43001,-28.73786 -73.67733,-54.33327 -111.80892,-70.48039 z"
		style="fill-opacity:0.442307692307692;fill:#ba1a1a;stroke:#000000;stroke-opacity:1;stroke-width:1.5" />
		</g>
		</g>
		<g
		inkscape:groupmode="layer"
		id="layer2"
		inkscape:label="text">
		<text
		id="text3045"
		x="521.3645"
		y="153.93195"
		style="font-size:14.08419703999999900px;text-anchor:middle;text-align:center">
		<tspan
		id="tspan3047"
		sodipodi:role="line"
		style="font-size:26px;font-variant:normal;font-weight:normal;writing-mode:lr-tb;fill:#000000;fill-opacity:1;fill-rule:nonzero;stroke:none;font-family:Helvetica;-inkscape-font-specification:Helvetica;text-anchor:middle;text-align:center"
		x="482.52118"
		y="153.93195">SetC</tspan>
		</text>
		<text
		id="text3057"
		x="684.18121"
		y="249.48895"
		style="font-size:14.08419703999999900px;text-anchor:middle;text-align:center">
		<tspan
		id="tspan3059"
		sodipodi:role="line"
		style="font-size:26px;font-variant:normal;font-weight:normal;writing-mode:lr-tb;fill:#000000;fill-opacity:1;fill-rule:nonzero;stroke:none;font-family:Helvetica;-inkscape-font-specification:Helvetica;text-anchor:middle;text-align:center"
		x="645.48236"
		y="249.48895">SetD</tspan>
		</text>
		<text
		id="text3069"
		x="117.11016"
		y="395.27802"
		style="font-size:20px;text-align:center;text-anchor:middle">
		<tspan
		id="tspan3071"
		sodipodi:role="line"
		style="font-size:20px;font-variant:normal;font-weight:normal;text-align:center;writing-mode:lr-tb;text-anchor:middle;fill:#000000;fill-opacity:1;fill-rule:nonzero;stroke:none;font-family:Helvetica;-inkscape-font-specification:Helvetica"
		x="117.11016"
		y="395.27802">38</tspan>
		</text>
		<text
		id="text3073"
		x="249.2789"
		y="225.60635"
		style="font-size:20px;text-align:center;text-anchor:middle">
		<tspan
		id="tspan3075"
		sodipodi:role="line"
		style="font-size:20px;font-variant:normal;font-weight:normal;text-align:center;writing-mode:lr-tb;text-anchor:middle;fill:#000000;fill-opacity:1;fill-rule:nonzero;stroke:none;font-family:Helvetica;-inkscape-font-specification:Helvetica"
		x="249.2789"
		y="225.60635">0</tspan>
		</text>
		<text
		id="text3077"
		x="504.80731"
		y="225.60635"
		style="font-size:20px;text-align:center;text-anchor:middle">
		<tspan
		id="tspan3079"
		sodipodi:role="line"
		style="font-size:20px;font-variant:normal;font-weight:normal;text-align:center;writing-mode:lr-tb;text-anchor:middle;fill:#000000;fill-opacity:1;fill-rule:nonzero;stroke:none;font-family:Helvetica;-inkscape-font-specification:Helvetica"
		x="504.80731"
		y="225.60635">0</tspan>
		</text>
		<text
		id="text3081"
		x="625.57294"
		y="397.27802"
		style="font-size:20px;text-align:center;text-anchor:middle">
		<tspan
		id="tspan3083"
		sodipodi:role="line"
		style="font-size:20px;font-variant:normal;font-weight:normal;text-align:center;writing-mode:lr-tb;text-anchor:middle;fill:#000000;fill-opacity:1;fill-rule:nonzero;stroke:none;font-family:Helvetica;-inkscape-font-specification:Helvetica"
		x="625.57294"
		y="397.27802">7</tspan>
		</text>
		<text
		id="text3085"
		x="189.14771"
		y="295.64047"
		style="font-size:20px;text-align:center;text-anchor:middle">
		<tspan
		id="tspan3087"
		y="295.64047"
		x="186.13441"
		style="font-size:20px;font-variant:normal;font-weight:normal;text-align:center;writing-mode:lr-tb;text-anchor:middle;fill:#000000;fill-opacity:1;fill-rule:nonzero;stroke:none;font-family:Helvetica;-inkscape-font-specification:Helvetica">24</tspan>
		</text>
		<text
		id="text3089"
		x="209.14909"
		y="499.15149"
		style="font-size:20px;text-align:center;text-anchor:middle">
		<tspan
		id="tspan3091"
		y="499.15149"
		x="205.81029"
		style="font-size:20px;font-variant:normal;font-weight:normal;text-align:center;writing-mode:lr-tb;text-anchor:middle;fill:#000000;fill-opacity:1;fill-rule:nonzero;stroke:none;font-family:Helvetica;-inkscape-font-specification:Helvetica">104</tspan>
		</text>
		<text
		id="text3093"
		x="370.88644"
		y="603.19421"
		style="font-size:20px;text-align:center;text-anchor:middle">
		<tspan
		id="tspan3095"
		sodipodi:role="line"
		style="font-size:20px;font-variant:normal;font-weight:normal;text-align:center;writing-mode:lr-tb;text-anchor:middle;fill:#000000;fill-opacity:1;fill-rule:nonzero;stroke:none;font-family:Helvetica;-inkscape-font-specification:Helvetica"
		x="370.88644"
		y="603.19421">62</tspan>
		</text>
		<text
		id="text3097"
		x="370.81818"
		y="269.62668"
		style="font-size:20px;text-align:center;text-anchor:middle">
		<tspan
		id="tspan3099"
		sodipodi:role="line"
		style="font-size:20px;font-variant:normal;font-weight:normal;text-align:center;writing-mode:lr-tb;text-anchor:middle;fill:#000000;fill-opacity:1;fill-rule:nonzero;stroke:none;font-family:Helvetica;-inkscape-font-specification:Helvetica"
		x="370.81818"
		y="269.62668">46</tspan>
		</text>
		<text
		id="text3101"
		x="525.47522"
		y="499.15149"
		style="font-size:20px;text-align:center;text-anchor:middle">
		<tspan
		id="tspan3103"
		y="499.15149"
		x="522.13641"
		style="font-size:20px;font-variant:normal;font-weight:normal;text-align:center;writing-mode:lr-tb;text-anchor:middle;fill:#000000;fill-opacity:1;fill-rule:nonzero;stroke:none;font-family:Helvetica;-inkscape-font-specification:Helvetica">3</tspan>
		</text>
		<text
		id="text3105"
		x="562.42499"
		y="295.64047"
		style="font-size:20px;text-anchor:middle;text-align:center">
		<tspan
		id="tspan3107"
		y="295.64047"
		x="555.48584"
		style="font-size:20px;font-variant:normal;font-weight:normal;writing-mode:lr-tb;fill:#000000;fill-opacity:1;fill-rule:nonzero;stroke:none;font-family:Helvetica;-inkscape-font-specification:Helvetica;text-anchor:middle;text-align:center">28</tspan>
		</text>
		<text
		id="text3109"
		x="245.15263"
		y="386.09192"
		style="font-size:20px;text-align:center;text-anchor:middle">
		<tspan
		id="tspan3111"
		y="386.09192"
		x="247.8654"
		style="font-size:20px;font-variant:normal;font-weight:normal;text-align:center;writing-mode:lr-tb;text-anchor:middle;fill:#000000;fill-opacity:1;fill-rule:nonzero;stroke:none;font-family:Helvetica;-inkscape-font-specification:Helvetica">24</tspan>
		</text>
		<text
		id="text3113"
		x="443.39343"
		y="553.04474"
		style="font-size:20px;text-align:center;text-anchor:middle">
		<tspan
		id="tspan3115"
		y="553.04474"
		x="440.38013"
		style="font-size:20px;font-variant:normal;font-weight:normal;text-align:center;writing-mode:lr-tb;text-anchor:middle;fill:#000000;fill-opacity:1;fill-rule:nonzero;stroke:none;font-family:Helvetica;-inkscape-font-specification:Helvetica">0</tspan>
		</text>
		<text
		id="text3117"
		x="299.25342"
		y="553.04474"
		style="font-size:20px;text-align:center;text-anchor:middle">
		<tspan
		id="tspan3119"
		y="553.04474"
		x="296.24011"
		style="font-size:20px;font-variant:normal;font-weight:normal;text-align:center;writing-mode:lr-tb;text-anchor:middle;fill:#000000;fill-opacity:1;fill-rule:nonzero;stroke:none;font-family:Helvetica;-inkscape-font-specification:Helvetica">24</tspan>
		</text>
		<text
		id="text3121"
		x="495.37305"
		y="386.09192"
		style="font-size:20px;text-align:center;text-anchor:middle">
		<tspan
		id="tspan3123"
		y="386.09192"
		x="492.08582"
		style="font-size:20px;font-variant:normal;font-weight:normal;text-align:center;writing-mode:lr-tb;text-anchor:middle;fill:#000000;fill-opacity:1;fill-rule:nonzero;stroke:none;font-family:Helvetica;-inkscape-font-specification:Helvetica">3</tspan>
		</text>
		<text
		id="text3125"
		x="371.26285"
		y="463.37106"
		style="font-size:20px;text-align:center;text-anchor:middle">
		<tspan
		id="tspan3127"
		y="463.37106"
		x="370.97562"
		style="font-size:20px;font-variant:normal;font-weight:normal;text-align:center;writing-mode:lr-tb;text-anchor:middle;fill:#000000;fill-opacity:1;fill-rule:nonzero;stroke:none;font-family:Helvetica;-inkscape-font-specification:Helvetica">0</tspan>
		</text>
		<text
		id="text3045-9"
		x="242.5423"
		y="153.93195"
		style="font-size:20px;text-anchor:middle;text-align:center">
		<tspan
		id="tspan3047-0"
		sodipodi:role="line"
		style="font-size:26px;font-variant:normal;font-weight:normal;writing-mode:lr-tb;fill:#000000;fill-opacity:1;fill-rule:nonzero;stroke:none;font-family:Helvetica;-inkscape-font-specification:Helvetica;text-anchor:middle;text-align:center"
		x="204.42625"
		y="153.93195">SetB</tspan>
		</text>
		<text
		id="text3045-0"
		x="67.119965"
		y="249.48895"
		style="font-size:14.08419703999999900px;text-anchor:middle;text-align:center">
		<tspan
		id="tspan3047-6"
		sodipodi:role="line"
		style="font-size:26px;font-variant:normal;font-weight:normal;writing-mode:lr-tb;fill:#000000;fill-opacity:1;fill-rule:nonzero;stroke:none;font-family:Helvetica;-inkscape-font-specification:Helvetica;text-anchor:middle;text-align:center"
		x="28.426247"
		y="249.48895">SetA</tspan>
		</text>
		</g>
		</svg>
		
